<svg width="128" height="128" viewBox="0 0 128 128" fill="none" xmlns="http://www.w3.org/2000/svg">
<circle r="12.5902" transform="matrix(-1 0 0 1 12.5901 27.5902)" fill="black"/>
<path d="M10.4918 25.7012L33.9934 49.2028" stroke="black" stroke-width="3.14754"/>
<circle cx="115.41" cy="27.5902" r="12.5902" fill="black"/>
<path d="M117.718 25.7012L94.2164 49.2028" stroke="black" stroke-width="3.14754"/>
<path fill-rule="evenodd" clip-rule="evenodd" d="M10.752 99.9613C7.45124 98.1654 5.51651 94.5894 5.90406 90.8518C9.50329 56.1399 34.3292 29.269 64.4196 29.269C94.5799 29.269 119.451 56.2651 122.96 91.0942C123.337 94.8378 121.386 98.4121 118.074 100.196C102.164 108.762 83.9646 113.623 64.6295 113.623C45.1186 113.623 26.7637 108.673 10.752 99.9613Z" fill="#FFDF6F"/>
<path d="M122.96 91.0942L121.394 91.2519L122.96 91.0942ZM118.074 100.196L117.327 98.8102L118.074 100.196ZM5.90406 90.8518L4.33868 90.6894L5.90406 90.8518ZM10.752 99.9613L9.99981 101.344L10.752 99.9613ZM7.46944 91.0141C11.0103 56.8654 35.355 30.8428 64.4196 30.8428V27.6953C33.3035 27.6953 7.99631 55.4144 4.33868 90.6894L7.46944 91.0141ZM64.4196 30.8428C93.5516 30.8428 117.942 56.9871 121.394 91.2519L124.526 90.9365C120.96 55.5431 95.6082 27.6953 64.4196 27.6953V30.8428ZM117.327 98.8102C101.642 107.256 83.6978 112.049 64.6295 112.049V115.197C84.2314 115.197 102.687 110.268 118.82 101.582L117.327 98.8102ZM64.6295 112.049C45.3878 112.049 27.2908 107.169 11.5041 98.5789L9.99981 101.344C26.2366 110.178 44.8493 115.197 64.6295 115.197V112.049ZM121.394 91.2519C121.706 94.3467 120.095 97.3203 117.327 98.8102L118.82 101.582C122.678 99.5039 124.968 95.3289 124.526 90.9365L121.394 91.2519ZM4.33868 90.6894C3.88395 95.0749 6.15538 99.2519 9.99981 101.344L11.5041 98.5789C8.7471 97.0788 7.14906 94.1039 7.46944 91.0141L4.33868 90.6894Z" fill="black"/>
<path fill-rule="evenodd" clip-rule="evenodd" d="M23.8145 92.8768C21.1438 91.6267 19.5714 88.7785 20.1785 85.8928C24.303 66.2862 42.5429 51.5117 64.4196 51.5117C86.2963 51.5117 104.536 66.2862 108.661 85.8928C109.268 88.7785 107.695 91.6267 105.025 92.8768C92.6942 98.6483 78.9335 101.873 64.4196 101.873C49.9057 101.873 36.145 98.6483 23.8145 92.8768Z" fill="black"/>
<ellipse cx="79.7377" cy="79.4195" rx="11.3312" ry="7.34426" fill="white"/>
<ellipse cx="49.7025" cy="79.4248" rx="11.3312" ry="7.34426" fill="white"/>
</svg>