<svg width="1080" height="1080" viewBox="0 0 1080 1080" fill="none" xmlns="http://www.w3.org/2000/svg">
<path d="M484.1 265.7H563.9L534.2 369.6C531.4 379.3 543.5 385.8 550 377.9L672 233.2C679.9 224.4 673.4 210 661.3 210H601L653.9 124.7C659.5 115.4 653 103.4 641.8 103.4H624.2H545.8C534.2 103.4 524 110.4 519.8 121L471.1 246.7C467.4 255.9 474.4 265.7 484.1 265.7Z" fill="black"/>
<path d="M840.1 481.2C805.8 420.3 744.9 384.1 678.2 382.2C622.9 378.9 574.6 407.6 542.7 416C511.3 411.6 459 376.7 398.3 380.3C378 381.9 325.7 387.3 283.4 427C264.9 442.1 248.9 461 236.4 483.1C210.2 529 201.3 583.2 204.1 638.1H203.4C208.2 745.6 259.7 865.6 341 932C353.8 943.9 367.5 953.3 382.3 958.4C427.2 979.5 478.7 980.5 534.8 949.9C600.4 986.1 657.8 980.6 705.8 951.4C719.9 944.1 733.1 933.2 745.3 920.3C771.5 894.7 794 862.1 812.4 826.7C868.6 726.1 901.1 587.9 840.1 481.2ZM657.4 542.2C687 542.2 711.9 567 711.9 596.7H603.3C603.3 567 627.7 542.2 657.4 542.2ZM427.5 519.5C457.1 519.5 482 544.3 482 574C482 603.6 457.2 628.1 427.5 628.1C397.8 628.1 373.4 603.6 373.4 574C373.4 544.4 397.9 519.5 427.5 519.5ZM716.5 764.8C677 825 609.7 854.7 542.7 854.7C475.7 854.7 408.4 825 368.9 764.8C357.3 747.1 368.3 730.1 383.6 728.7C384.6 728.6 385.6 728.7 386.7 728.7C394.4 729 401.1 734.2 405.3 740.6C436.1 787 489.5 810.3 542.7 810.3C595.9 810.3 649 787 679.8 740.6C684 734.2 690.7 729 698.4 728.7C715.3 727.9 728.9 745.9 716.5 764.8Z" fill="black"/>
</svg>
